<?xml version="1.0" encoding="utf-8"?>
<!-- Generator: Adobe Illustrator 28.0.0, SVG Export Plug-In . SVG Version: 6.00 Build 0)  -->
<svg version="1.1" id="Capa_1" xmlns="http://www.w3.org/2000/svg" xmlns:xlink="http://www.w3.org/1999/xlink" x="0px" y="0px"
	 viewBox="0 0 500 500" style="enable-background:new 0 0 500 500;" xml:space="preserve">
<style type="text/css">
	.st0{fill:#9C9B9B;}
	.st1{font-family:'Exo-Medium';}
	.st2{font-size:32.3072px;}
	.st3{letter-spacing:16;}
	.st4{fill:#9C9B9B;stroke:#9C9B9B;stroke-width:1.6154;stroke-miterlimit:10;}
	.st5{fill:#FFFFFF;}
	.st6{fill:none;stroke:#000000;stroke-width:1.0713;stroke-linecap:round;stroke-linejoin:round;stroke-miterlimit:10;}
	.st7{fill:none;stroke:#000000;stroke-width:0.7142;stroke-linecap:round;stroke-linejoin:round;stroke-miterlimit:10;}
	.st8{fill:none;stroke:#000000;stroke-width:0.7142;stroke-miterlimit:10;}
	.st9{fill:none;stroke:#000000;stroke-width:0.3571;stroke-linecap:round;stroke-linejoin:round;stroke-miterlimit:10;}
	.st10{fill:#AEAFAE;stroke:#000000;stroke-width:0.3571;stroke-miterlimit:10;}
	.st11{fill:#9D9D9D;stroke:#000000;stroke-width:0.7142;stroke-miterlimit:10;}
	.st12{fill:#AEAFAE;stroke:#000000;stroke-width:0.7142;stroke-linecap:round;stroke-linejoin:round;stroke-miterlimit:10;}
	.st13{fill:#262626;stroke:#000000;stroke-width:0.3571;stroke-miterlimit:10;}
	.st14{fill:#A1A0A0;stroke:#000000;stroke-width:0.3571;stroke-miterlimit:10;}
	.st15{fill:#787878;stroke:#000000;stroke-width:0.7142;stroke-miterlimit:10;}
	.st16{fill:none;stroke:#000000;stroke-width:1.0713;stroke-linejoin:bevel;stroke-miterlimit:10;}
	.st17{fill:#9F9F9F;stroke:#000000;stroke-width:0.3571;stroke-miterlimit:10;}
	.st18{fill:none;stroke:#000000;stroke-width:4.9993;stroke-miterlimit:10;}
	.st19{stroke:#000000;stroke-width:0.3571;stroke-miterlimit:10;}
	.st20{stroke:#000000;stroke-width:0;stroke-miterlimit:10;}
	.st21{fill:#9D9D9D;stroke:#000000;stroke-width:0.3571;stroke-miterlimit:10;}
	.st22{fill:#CECECD;stroke:#000000;stroke-width:0.7142;stroke-miterlimit:10;}
	.st23{fill:#A5A5A5;stroke:#000000;stroke-width:0.7142;stroke-miterlimit:10;}
	.st24{fill:none;stroke:#000000;stroke-width:0.3571;stroke-miterlimit:10;}
	.st25{fill:none;stroke:#000000;stroke-width:1.0713;stroke-miterlimit:10;}
	.st26{fill:none;stroke:#000000;stroke-width:4.9993;stroke-linejoin:round;stroke-miterlimit:10;}
	.st27{fill:#808080;stroke:#000000;stroke-width:0.7142;stroke-miterlimit:10;}
	.st28{fill:url(#SVGID_1_);}
	.st29{fill:#E63636;}
	.st30{fill:none;}
	.st31{fill:#010000;}
	.st32{font-family:'ArialMT';}
	.st33{font-size:17.8546px;}
</style>
<g>
	<g>
		<g>
			<text transform="matrix(1 0 0 1 134.9551 449.2109)" class="st0 st1 st2 st3">EXPLORE</text>
		</g>
		<g>
			<line class="st4" x1="390.95" y1="437.42" x2="395.42" y2="437.42"/>
			<line class="st4" x1="375.9" y1="437.42" x2="388.89" y2="437.42"/>
		</g>
		<g>
			<line class="st4" x1="111.6" y1="437.42" x2="107.14" y2="437.42"/>
			<line class="st4" x1="126.66" y1="437.42" x2="113.67" y2="437.42"/>
		</g>
	</g>
	<g>
		<g>
			<g>
				<path class="st5" d="M173.71,234.9l27.72,34.65l46.56,29.3h19.45l16.53-19.57l18.11-33.43l13.74-42.63l-51.28-1.76
					c-14.67-0.5-29.36,0.03-43.95,1.59l-57.42,6.14C163.16,214.65,173.71,234.9,173.71,234.9z"/>
				<path class="st5" d="M344.38,116.98l-12.16-9.24l1.46-15.2l-4.13-9l-11.06-5.84l11.06-6.2l-2.67-8.27l-5.11-2.31l-5.35,0.61
					l-4.25-4.25l-6.81,2.07l-5.59,3.28l-3.28,0.12L296,47.45l-9.12-5.84h-9.73l-6.59,5.84l-0.06,14.47l-12.58,7.14l-4.35-4.95
					l-9.12-6.81l-8.87,0.97l-11.91,9.48l-14.83,27.59l-9.48,4.38l-23.34,20.06l-12.52,19.69v5.47l-8.02,9.24v16.02l32.01-4.83
					c0,0,66.77-7.34,98.89-2.27l36.98,4.46c0.73-3.65-6.93-30.76-6.93-30.76l12.76,8.39l11.67-10.45l5.11-10.7L344.38,116.98z"/>
			</g>
			<polyline class="st6" points="156.84,169.62 192.53,149.26 205.9,140.99 194.27,162.11 			"/>
			<polyline class="st7" points="158.73,167.55 165.41,147.01 170.56,161.79 			"/>
			<polyline class="st7" points="221.06,95.22 191.31,140.99 218.35,134.79 221.06,95.22 			"/>
			<polyline class="st7" points="201.49,160.75 228.38,137.65 210.94,160.6 			"/>
			<polyline class="st7" points="285.76,143.18 241.27,135.95 228.38,137.65 205.9,140.99 165.41,147.01 205.9,140.99 
				218.35,134.79 254.03,118.11 276.16,111.15 285.76,143.18 254.03,118.11 241.27,135.95 218.35,158.97 			"/>
			<polyline class="st7" points="248.44,158.97 285.76,143.18 259.87,157.81 			"/>
			<line class="st7" x1="285.76" y1="143.18" x2="281.75" y2="160.6"/>
			<line class="st7" x1="285.76" y1="143.18" x2="295.64" y2="163.42"/>
			<polyline class="st7" points="285.76,143.18 318.1,156.13 303.21,163.09 			"/>
			<line class="st8" x1="313.99" y1="165.37" x2="318.1" y2="156.13"/>
			<polyline class="st7" points="300.53,126.4 316.76,121.36 315.43,135.95 300.53,126.4 276.16,111.15 295.79,111.15 
				292.08,121.12 305.21,115.65 300.53,126.4 316.76,121.36 331.96,125.74 317.54,121.53 305.21,115.65 330.25,110.05 
				317.54,121.53 			"/>
			<polyline class="st7" points="331.96,125.74 330.25,110.05 311.9,104.58 			"/>
			<polygon class="st9" points="232.81,69.69 237.02,62.64 235.92,58.27 222.72,70.14 224.51,70.06 			"/>
			<polygon class="st9" points="225.04,77.72 224.51,70.06 232.81,69.69 			"/>
			<polygon class="st7" points="242,115.65 258.96,115.65 250.21,100.51 			"/>
			<polygon class="st7" points="235.92,111.88 250.21,100.51 242,115.65 			"/>
			<polygon class="st7" points="233.84,107.14 235.92,111.88 250.21,100.51 			"/>
			<polygon class="st9" points="225.04,77.72 218.85,82.27 224.51,70.06 			"/>
			<polygon class="st9" points="239.81,75.17 244.43,66.9 232.81,69.69 			"/>
			<polygon class="st9" points="247.11,75.17 242.97,69.09 239.81,75.17 			"/>
			<polyline class="st9" points="225.04,87.94 232.81,69.69 239.81,75.17 225.04,87.94 			"/>
			<polygon class="st9" points="225.04,77.72 225.04,87.94 232.81,69.69 			"/>
			<polyline class="st7" points="271.3,48.18 277.62,59.73 277.62,51.22 271.3,48.18 			"/>
			<polygon class="st7" points="277.62,67.87 288.07,51.22 277.62,51.22 			"/>
			<polygon class="st7" points="292.45,67.87 288.07,51.22 277.62,67.87 			"/>
			<polygon class="st7" points="297.8,97.17 277.62,67.87 292.45,67.87 			"/>
			<polygon class="st9" points="298.4,69.09 295.79,64.77 292.45,67.87 			"/>
			<polygon class="st7" points="297.8,97.17 298.4,69.09 292.45,67.87 			"/>
			<polyline class="st7" points="290.69,59.85 294.33,47.45 288.07,51.22 290.69,59.85 			"/>
			<polygon class="st10" points="247.11,75.17 253.91,74.31 242.97,69.09 			"/>
			<polygon class="st9" points="256.47,80.65 253.91,74.31 267.89,74.31 			"/>
			<polyline class="st9" points="265.7,104.58 256.47,80.65 267.89,74.31 265.7,104.58 			"/>
			<polyline class="st9" points="253.91,74.31 272.63,63.8 267.89,74.31 253.91,74.31 			"/>
			<polygon class="st7" points="297.8,97.17 267.89,74.31 277.62,67.87 			"/>
			<polyline class="st7" points="265.7,104.58 297.8,97.17 267.89,74.31 265.7,104.58 			"/>
			<polygon class="st7" points="295.79,111.15 311.9,104.58 305.21,115.65 			"/>
			<polygon class="st7" points="297.8,97.17 311.9,104.58 282.84,103.85 			"/>
			<polyline class="st7" points="265.7,104.58 282.84,103.85 276.16,111.15 258.96,115.65 282.84,103.85 			"/>
			<polygon class="st7" points="318.83,98.99 315.43,83.01 297.8,97.17 			"/>
			<polyline class="st9" points="323.69,91.58 318.83,98.99 331.2,95.28 323.69,91.58 			"/>
			<polygon class="st7" points="327.34,105.43 318.83,98.99 311.9,104.58 			"/>
			<polyline class="st9" points="331.2,95.28 330.25,110.05 327.34,105.43 331.2,95.28 			"/>
			<polyline class="st9" points="331.96,125.74 344.72,116.98 330.25,110.05 331.96,125.74 			"/>
			<polyline class="st7" points="235.92,111.88 233.43,118.11 242,115.65 238.3,125.47 218.35,134.79 233.84,102.4 221.06,95.22 			
				"/>
			<polygon class="st7" points="231.83,119.25 233.84,102.4 221.42,130.12 			"/>
			<polyline class="st9" points="221.06,95.22 230.33,93.99 227.84,99.38 221.06,95.22 			"/>
			<polygon class="st9" points="233.84,102.4 234.57,96.5 227.84,99.38 			"/>
			<polygon class="st11" points="230.33,93.99 234.57,96.5 227.84,99.38 			"/>
			<polyline class="st12" points="225.04,87.94 230.79,92.58 232.81,85.88 225.04,87.94 225.04,87.94 			"/>
			<polygon class="st9" points="233.02,81.04 232.81,85.88 239.04,79.86 			"/>
			<polygon class="st9" points="239.81,75.17 239.04,79.86 247.11,75.17 			"/>
			<polyline class="st12" points="253.91,74.31 245.97,80.45 247.11,75.17 253.91,74.31 			"/>
			<polygon class="st9" points="239.04,79.86 245.97,80.45 239.04,86.79 			"/>
			<polygon class="st7" points="256.47,80.65 239.04,86.79 250.21,100.51 			"/>
			<polygon class="st7" points="277.62,59.73 267.89,74.31 272.63,63.8 			"/>
			<polygon class="st9" points="298.4,69.09 303.21,63.8 295.79,64.77 			"/>
			<polygon class="st7" points="297.8,97.17 308.31,74.86 315.43,83.01 			"/>
			<polygon class="st7" points="298.4,69.09 308.31,74.86 297.8,97.17 			"/>
			<polygon class="st13" points="217.63,134.79 165.41,147.01 205.9,140.99 			"/>
			<polygon class="st6" points="181.83,214.96 175.75,234.54 205.9,247.66 			"/>
			<polyline class="st6" points="203.22,268.76 205.9,247.66 240.05,275.14 203.22,268.76 			"/>
			<polyline class="st6" points="248.32,298.84 239.39,275.14 269.49,296.81 267.77,298.84 248.32,298.84 			"/>
			<polygon class="st14" points="234.34,252.04 239.39,275.14 205.9,247.66 			"/>
			<polygon class="st15" points="209.54,221.41 234.34,252.04 205.9,247.66 			"/>
			<polygon class="st6" points="282.97,249.12 234.34,252.04 258.17,268.09 			"/>
			<polyline class="st16" points="234.04,205.46 209.54,221.41 201.17,207.43 			"/>
			<line class="st16" x1="234.34" y1="252.04" x2="281.47" y2="205.46"/>
			<polygon class="st17" points="270.32,276.72 258.17,268.09 279.83,266.67 			"/>
			<polygon class="st6" points="239.39,275.14 258.17,268.09 270.32,276.72 			"/>
			<polyline class="st11" points="284.98,278.02 270.32,276.72 299.74,244.38 284.98,278.02 			"/>
			<polyline class="st6" points="300.29,204.51 311.78,209.25 301.08,215.94 308.69,226.37 294.76,230.78 299.74,244.38 
				308.69,226.37 311.78,209.25 			"/>
			<polyline class="st16" points="300.29,204.51 301.08,215.94 294.76,230.78 282.97,249.12 294.75,205.46 			"/>
			<line class="st16" x1="300.29" y1="204.51" x2="294.76" y2="230.78"/>
			<polyline class="st16" points="300.29,204.51 282.97,249.12 280.54,265.49 299.74,244.38 282.97,249.12 			"/>
			<polyline class="st16" points="181.83,214.96 209.54,221.41 257.48,203.18 			"/>
			<path class="st18" d="M163.5,209.19c0,5.46,10.55,25.71,10.55,25.71l27.72,34.65l46.56,29.3h19.45l16.53-19.57l18.11-33.43
				l13.74-42.63"/>
			<polygon class="st19" points="235.92,58.27 237.02,62.64 242.97,69.09 253.91,74.31 259.87,71.4 259.38,69.33 244.8,57.3 			"/>
			<polygon points="318.83,77.72 320.16,82.82 333.51,97.9 334.02,92.55 329.89,83.55 			"/>
			<polygon class="st15" points="300.53,126.4 285.76,143.18 316.76,136.8 			"/>
			<polygon class="st20" points="331.96,125.74 315.43,135.95 328.42,140.2 			"/>
			<polygon class="st20" points="329.53,145.19 316.76,136.8 328.07,138.62 			"/>
			<polygon class="st11" points="165.41,147.01 191.31,140.99 201.65,99.45 			"/>
			<polygon class="st21" points="217.63,82.67 221.06,95.22 225.04,87.94 			"/>
			<polygon class="st22" points="250.21,100.51 258.96,115.65 265.7,104.58 			"/>
			<polygon class="st23" points="294.33,47.45 290.69,59.85 295.79,64.77 			"/>
			<polygon class="st21" points="315.43,83.01 323.69,91.58 320.16,82.82 319.6,80.65 			"/>
			<polygon class="st24" points="308.31,74.86 317.43,78.08 315.43,83.01 			"/>
			<polygon class="st25" points="309.71,65.44 314.94,69.63 308.31,74.86 309.71,65.44 303.21,63.8 307.7,61.43 			"/>
			<polygon class="st24" points="315.73,73.04 317.43,78.08 308.31,74.86 			"/>
			<polygon class="st24" points="307.7,61.43 312.87,59.24 309.71,65.44 			"/>
			<polygon class="st24" points="325.01,66.93 323.2,73.4 329.45,70.17 326.73,66.05 			"/>
			<polygon class="st25" points="316.7,69.09 325.01,66.93 321.68,64.41 			"/>
			<polygon class="st25" points="315.73,73.04 316.7,69.09 320.16,72.67 			"/>
			<polyline class="st24" points="320.16,72.67 323.2,73.4 325.01,66.93 320.16,72.67 317.43,78.08 323.2,73.4 			"/>
			<polygon class="st24" points="309.71,65.44 317.13,63.8 312.87,59.24 			"/>
			<polygon class="st25" points="314.94,69.63 317.13,63.8 321.68,64.41 316.7,69.09 			"/>
			<polygon class="st8" points="291.78,104.08 295.79,111.15 276.16,111.15 			"/>
			<polygon class="st19" points="200.7,103.25 221.06,95.22 217.07,80.65 209.18,95.34 201.97,98.16 			"/>
			<polygon class="st19" points="222.52,133.87 225.59,129.2 236,118.33 238.74,95.58 234.5,93.07 225.22,94.3 229.21,87.02 
				234.95,91.66 236.98,84.96 243.2,78.94 243.2,85.87 238.01,106.22 240.39,111.14 237.6,117.19 246.17,114.73 242.47,124.56 			
				"/>
			<polygon class="st19" points="344.72,116.98 331.96,125.74 328.07,138.62 329.53,145.19 341.2,134.73 346.3,124.03 			"/>
			<polygon class="st19" points="180.27,118.93 170.37,141.69 165.41,147.01 164.29,138.76 			"/>
			<path class="st26" d="M323.69,167.55c0.73-3.65-6.93-30.76-6.93-30.76l12.76,8.39l11.67-10.45l5.11-10.7l-1.58-7.05l-12.16-9.24
				l1.46-15.2l-4.13-9l-11.06-5.84l11.06-6.2l-2.67-8.27l-5.11-2.31l-5.35,0.61l-4.25-4.25l-6.81,2.07l-5.59,3.28l-3.28,0.12
				l-0.49-15.32l-9.12-5.84h-9.73l-6.59,5.84l-0.06,14.47l-12.58,7.14l-4.35-4.95l-9.12-6.81l-8.87,0.97l-11.91,9.48l-14.83,27.59
				l-9.48,4.38l-23.34,20.06l-12.52,19.69v5.47l-8.02,9.24v16.02"/>
			<polyline class="st27" points="171.29,161.38 179.55,167.55 190.75,162.11 192.09,149.53 			"/>
			<path d="M138.79,218.61c0,0-15.07,2.55-12.64,16.29c0,0,4.08,5.4,37.03,8.21c0.25,0.02,0.41-0.26,0.25-0.46
				c-2.2-2.85-12.86-16.8-13.95-21.37C149.49,221.28,143.78,221.41,138.79,218.61z"/>
			<path class="st19" d="M322.96,213.5c0,0-2.17,14.04-5.18,20.55c-0.12,0.27,0.09,0.57,0.38,0.54c3.37-0.35,18.58-2.29,27.41-9.17
				c0,0,1.58-10.33-14.04-15.07C331.53,210.34,327.46,212.9,322.96,213.5z"/>
			<path class="st19" d="M122.5,229.79c0,0,1.34-7.42,8.51-11.18c7.17-3.77,43.52-11.07,54.46-12.03l3.16,3.77
				c0,0,36.51-4.07,43.77-3.9c0.69,0.02,1.32-0.37,1.64-0.98l0.96-1.91c0.27-0.53,0.81-0.88,1.4-0.89l19.82-0.58l2.07,3.65
				c0,0,31.52,0.89,39.09,1.3c0.65,0.03,1.27-0.26,1.65-0.79l1.26-1.73c0.49-0.68,1.31-1.04,2.14-0.96c5,0.48,22.64,2.28,30.66,4.46
				c9.39,2.55,12.4,6.84,15.04,11.85c0,0,1.91-6.2-5.29-12.31c0,0-9.83-6.62-41.57-8.51c0,0-49.17-2.31-60.23-0.49
				c0,0-32.33,0.36-57.5,4.01c0,0-28.33,3.04-45.47,9.12C125.31,216.2,121.65,219.83,122.5,229.79z"/>
			<path class="st19" d="M120.52,188.72c1.77-1.74,8.17-7.33,19.48-9.98c0,0,0.01,0,0.01,0c0.27-0.08,13.55-4.27,19.69-5.47
				c6.2-1.22,23.58-4.25,26.87-4.74c3.27-0.48,29.88-3.39,32.68-3.04c0.02,0,0.03,0,0.04,0c0.88-0.07,27.92-2.15,30.69-1.23
				c0.03,0.01,0.06,0.02,0.09,0.01c1.41-0.02,33.66-0.46,37.01,0.6c0.02,0.01,0.03,0.01,0.05,0.01c0.84,0.08,23.88,2.32,27.06,3.39
				c0.01,0,0.03,0.01,0.04,0.01c0.69,0.1,18.58,2.64,30.92,10.52c0.2,0.13,0.46-0.01,0.46-0.25v-4.38c0-0.11-0.06-0.2-0.15-0.26
				c-1.69-1-18.13-10.19-57.48-12.53c-0.25-0.01-0.46-0.17-0.56-0.4l-1.48-3.69c-0.04-0.11-0.15-0.19-0.27-0.19
				c-3.9-0.09-64.42-1.39-101.72,3.87c-0.12,0.02-0.22,0.1-0.25,0.22l-0.99,3.63c-0.03,0.11-0.12,0.2-0.24,0.22
				c-2.63,0.47-32.18,5.74-35.43,7.02c-3.39,1.33-21.33,6.15-26.96,11.82c-0.06,0.06-0.09,0.13-0.09,0.21v4.42
				C120.01,188.78,120.33,188.91,120.52,188.72z"/>
			<path d="M121.29,217.64c0,0,4.13-5.23,11.06-7.05c0,0,15.07-5.47,19.81-5.59c0,0,21.76-4.5,27.59-4.5c0,0,25.41-3.4,29.3-3.04
				c0,0,28.57-2.31,42.18-2.31s39.51,0.73,39.51,0.73s25.77,1.58,34.28,3.28c8.51,1.7,15.07,3.53,17.51,4.86
				c2.43,1.34,4.86,4.01,4.86,4.01L346.3,187c0,0,1.82-3.65-5.59-7.17s-18.6-7.66-26.5-8.39c0,0-26.01-4.57-47.9-4.5
				c0,0-36.14,0.53-51.05,1.78l-38.67,4.35c0,0-24.48,4.56-31.61,7.07c-19.69,6.92-22.84,11.77-23.59,12.9
				c-0.56,0.84-0.83,1.84-0.8,2.85L121.29,217.64z"/>
			<linearGradient id="SVGID_1_" gradientUnits="userSpaceOnUse" x1="303.9654" y1="175.4317" x2="162.2333" y2="196.5074">
				<stop  offset="0" style="stop-color:#FFFFFF"/>
				<stop  offset="0.1855" style="stop-color:#CBCBCB"/>
				<stop  offset="0.5898" style="stop-color:#5F5F5F"/>
				<stop  offset="0.8698" style="stop-color:#1B1B1B"/>
				<stop  offset="1" style="stop-color:#000000"/>
			</linearGradient>
			<path class="st28" d="M122.01,195.88c0,0,9.12-8.21,22.85-12.4c17.68-5.4,33.32-7.29,33.32-7.29s26.74-3.38,38.47-4.38
				c12.95-1.09,32.08-1.77,45.4-1.58l33.92,2.04c0,0,4.8-0.46,5.96,3.65l4.35,10.85c0,0,2.75,6.8-3.01,6.66
				c-32.37-0.82-62.85-0.44-69.42-0.09c0,0-39.07,0.73-75.91,7.48c-8.76,1.6-26.43,6.2-35.55,12.22L122.01,195.88z"/>
		</g>
		<polygon class="st7" points="277.62,51.22 277.5,41.61 271.3,48.18 		"/>
		<polygon class="st7" points="286.37,42.59 288.07,51.22 277.62,51.22 		"/>
		<polyline class="st7" points="277.5,41.61 286.37,42.59 277.62,51.22 277.5,41.61 		"/>
		<polyline class="st7" points="294.33,47.45 288.07,51.22 286.37,42.59 294.33,47.45 		"/>
		<g id="Logo_00000042725573978416581030000011234114164400108723_">
			<path class="st29" d="M96.37,347.22c0,0-0.97,3.89-4.25,4.01c-2.73,0.1-29.65,0.03-38.66,0.01c-3-0.01-5.96,0.69-8.61,2.07
				c-4.4,2.3-9.74,6.92-9.74,15.79c0,15.07,10.7,19.57,14.95,19.57h40.13c1.62,0,3.23,0.5,4.5,1.51c0.91,0.73,1.69,1.72,1.69,2.98
				c0,3.04,0,7.9,0,7.9s-0.12,4.86-4.5,4.86H47.35c-10.67-1.09-16.82-5.27-22.88-14.04c-5.47-7.9-6.02-12.7-6.5-22.55
				c-0.34-6.8,0.97-15.2,9.6-24.68s23.22-10.33,23.22-10.33H91.5c0,0,4.86,0.12,4.86,3.77C96.37,341.75,96.37,347.22,96.37,347.22z"
				/>
			<path class="st29" d="M145.32,370.52h10.75l9.21,16.68h-25.85c0,0-1.34-0.44-2.35-1.59c-1.23-1.4-1.34-3.47-0.36-5.05l5.04-8.17
				c0,0,0.18-0.75,2.02-1.55C144.26,370.62,144.79,370.52,145.32,370.52z"/>
			<path d="M141.31,335.07c1.3,0,8.24,0,12.03,0c1.53,0,2.94,0.82,3.69,2.15l24.59,43.21c0.07,0.14,0.15,0.27,0.25,0.39
				c0.49,0.62,2.05,2.15,3.94-0.04c0.1-0.12,0.19-0.26,0.26-0.4l20.56-41.48c0,0,1.64-3.65,4.5-3.83
				c2.55-0.16,39.22-0.04,47.09-0.01c1.08,0,2.15,0.17,3.18,0.49c4.96,1.53,15.74,6.58,16.79,20.84c0.02,0.34,0.05,0.67,0.09,1.01
				c0.19,1.56,0.59,8.6-5.49,17.87c-1.07,1.63-2.62,2.91-4.44,3.6c-0.73,0.28-1.45,0.7-1.88,1.32c-0.44,0.65-0.35,1.72,0.15,2.33
				l15.2,18.5c0,0,2.93,3.19,0.64,5.1c-0.34,0.29-0.79,0.43-1.24,0.43h-17.34c-0.1,0-0.2,0.01-0.3,0.02
				c-0.62,0.1-3.41,0.37-5.05-2.49c-0.08-0.13-0.16-0.26-0.26-0.38c-1.95-2.29-22.41-26.28-25.81-30.26
				c-0.31-0.36-0.48-0.82-0.48-1.3v-1.52c0-1.1,0.89-2,2-2h15.2c4.14,0,7.89-2.55,9.31-6.44c0.9-2.47,1.07-5.35-0.88-8.11
				c-1.44-2.04-3.82-3.2-6.32-3.2l-26.19,0c-1.03,0-1.98,0.57-2.47,1.49l-26.99,51.15c0,0-1.5,3.56-5.09,3.12h-13.27
				c-0.04,0-0.07,0.01-0.11,0.01c-1.74,0.03-3.15,0.1-4.54-2.1c-0.02-0.04-0.05-0.08-0.07-0.11l-24.53-47.11l-9.36-17.59
				c-0.16-0.29-0.24-0.62-0.23-0.95c0.01-1.02,0.3-3.16,2.46-3.66C141.03,335.08,141.17,335.07,141.31,335.07z"/>
			<path class="st29" d="M102.62,405.06c-1.11-1.11-2.58-3.17-1.45-5.62l37.29-60.11l9.57,17.99l-27.35,45.22
				c0,0-1.22,2.98-3.46,3.4h-12.47C103.95,405.94,103.19,405.62,102.62,405.06z"/>
			<path class="st29" d="M387.75,405.67h-14.33c-0.72,0-1.31-0.59-1.31-1.31v-68.95c0-0.72,0.59-1.31,1.31-1.31h14.33
				c0.72,0,1.31,0.59,1.31,1.31v68.95C389.06,405.08,388.47,405.67,387.75,405.67z"/>
			<path class="st29" d="M336,334.1h-40.48c0,0-3.1,0-4.74,4.01v63.64c0,0,0.64,3.92,3.83,3.92c3.19,0,43.49,0,43.49,0
				s21.87-1.07,29.62-25.61c0.75-2.37,1.11-4.86,1.11-7.35v-7.44c0-2.14-0.26-4.28-0.82-6.35C365.98,351.43,359.1,336.85,336,334.1z
				 M352.04,373.18c0,0.78-0.12,1.56-0.36,2.3c-4.46,13.43-16.87,13.77-16.87,13.77s-18.33-0.09-22.7,0
				c-4.38,0.09-4.19-4.01-4.19-4.01v-30.73c0-2.64,2.92-3.37,2.92-3.37s12.67,0,24.8,0c9.84,0,14.52,9.91,15.93,13.64
				c0.32,0.84,0.48,1.73,0.48,2.63V373.18z"/>
			<path class="st29" d="M452.75,334.1h-26.26c-18.61,0-33.69,15.08-33.69,33.69v4.19c0,18.61,15.08,33.69,33.69,33.69h26.26
				c18.61,0,33.69-15.08,33.69-33.69v-4.19C486.43,349.18,471.35,334.1,452.75,334.1z M468.75,371.07c0,9.94-8.06,18.01-18.01,18.01
				h-23.16c-9.94,0-18.01-8.06-18.01-18.01v-1.91c0-9.94,8.06-18.01,18.01-18.01h23.16c9.94,0,18.01,8.06,18.01,18.01V371.07z"/>
			<path d="M420.82,371.84h8.57c0,0,2.04,0.09,2.67-1.4l1.7-3.34c0,0,0.82-1.03,1.61,0l3.92,14.04c0,0,0.64,2.19,3.34,2.19
				c2.7,0,3.8-2.25,3.8-2.25l4.38-8.29c0.26-0.49,0.76-0.79,1.31-0.79h6.38c0.25,0,0.42-0.26,0.32-0.49l-1.27-2.98
				c-0.13-0.31-0.44-0.51-0.78-0.51h-8.18c-0.48,0-0.94,0.23-1.23,0.62l-2.15,2.91c0,0-0.97,1.76-2.1,0l-4.25-13.57
				c-0.17-0.53-0.66-0.9-1.22-0.9h-3.1c-0.42,0-0.8,0.21-1.02,0.57l-5.89,9.47c-0.35,0.56-0.96,0.9-1.62,0.9h-3.87
				c-0.26,0-0.49,0.18-0.55,0.43L420.82,371.84z"/>
			<rect x="442.13" y="305.18" class="st30" width="37.2" height="25.36"/>
			<text transform="matrix(1 0 0 1 447.8389 324.2529)" class="st31 st32 st33">TM</text>
		</g>
	</g>
</g>
</svg>
